<?xml version="1.0" encoding="UTF-8" standalone="no"?>
<!DOCTYPE svg PUBLIC "-//W3C//DTD SVG 1.1//EN"
 "http://www.w3.org/Graphics/SVG/1.1/DTD/svg11.dtd">
<!-- Generated by graphviz version 2.43.0 (0)
 -->
<!-- Title: G Pages: 1 -->
<svg width="1620pt" height="389pt"
 viewBox="0.00 0.00 1620.00 389.00" xmlns="http://www.w3.org/2000/svg" xmlns:xlink="http://www.w3.org/1999/xlink">
<g id="graph0" class="graph" transform="scale(1 1) rotate(0) translate(4 385)">
<title>G</title>
<polygon fill="white" stroke="transparent" points="-4,4 -4,-385 1616,-385 1616,4 -4,4"/>
<!-- aws_eks_cluster.balu361988 -->
<g id="node1" class="node">
<title>aws_eks_cluster.balu361988</title>
<polygon fill="none" stroke="black" points="925.5,-223 710.5,-223 710.5,-187 925.5,-187 925.5,-223"/>
<text text-anchor="middle" x="818" y="-201.3" font-family="sans-serif" font-size="14.00">aws_eks_cluster.balu361988</text>
</g>
<!-- aws_iam_role.balu361988_cluster_role -->
<g id="node3" class="node">
<title>aws_iam_role.balu361988_cluster_role</title>
<polygon fill="none" stroke="black" points="532,-327 249,-327 249,-291 532,-291 532,-327"/>
<text text-anchor="middle" x="390.5" y="-305.3" font-family="sans-serif" font-size="14.00">aws_iam_role.balu361988_cluster_role</text>
</g>
<!-- aws_eks_cluster.balu361988&#45;&gt;aws_iam_role.balu361988_cluster_role -->
<g id="edge1" class="edge">
<title>aws_eks_cluster.balu361988&#45;&gt;aws_iam_role.balu361988_cluster_role</title>
<path fill="none" stroke="black" d="M761.22,-223.07C707.53,-239.98 623.84,-265.12 550,-282 539.16,-284.48 527.86,-286.84 516.5,-289.06"/>
<polygon fill="black" stroke="black" points="515.67,-285.65 506.51,-290.97 516.99,-292.53 515.67,-285.65"/>
</g>
<!-- aws_security_group.balu361988_cluster_sg -->
<g id="node12" class="node">
<title>aws_security_group.balu361988_cluster_sg</title>
<polygon fill="none" stroke="black" points="550,-219 231,-219 231,-183 550,-183 550,-219"/>
<text text-anchor="middle" x="390.5" y="-197.3" font-family="sans-serif" font-size="14.00">aws_security_group.balu361988_cluster_sg</text>
</g>
<!-- aws_eks_cluster.balu361988&#45;&gt;aws_security_group.balu361988_cluster_sg -->
<g id="edge2" class="edge">
<title>aws_eks_cluster.balu361988&#45;&gt;aws_security_group.balu361988_cluster_sg</title>
<path fill="none" stroke="black" d="M710.45,-204C664.99,-203.57 610.82,-203.06 560.15,-202.59"/>
<polygon fill="black" stroke="black" points="560.1,-199.08 550.06,-202.49 560.03,-206.08 560.1,-199.08"/>
</g>
<!-- aws_subnet.balu361988_subnet -->
<g id="node14" class="node">
<title>aws_subnet.balu361988_subnet</title>
<polygon fill="none" stroke="black" points="511.5,-273 269.5,-273 269.5,-237 511.5,-237 511.5,-273"/>
<text text-anchor="middle" x="390.5" y="-251.3" font-family="sans-serif" font-size="14.00">aws_subnet.balu361988_subnet</text>
</g>
<!-- aws_eks_cluster.balu361988&#45;&gt;aws_subnet.balu361988_subnet -->
<g id="edge3" class="edge">
<title>aws_eks_cluster.balu361988&#45;&gt;aws_subnet.balu361988_subnet</title>
<path fill="none" stroke="black" d="M710.45,-217.52C653.21,-224.25 582.16,-232.6 521.66,-239.7"/>
<polygon fill="black" stroke="black" points="521.19,-236.24 511.66,-240.88 522,-243.19 521.19,-236.24"/>
</g>
<!-- aws_eks_node_group.balu361988 -->
<g id="node2" class="node">
<title>aws_eks_node_group.balu361988</title>
<polygon fill="none" stroke="black" points="1474.5,-198 1223.5,-198 1223.5,-162 1474.5,-162 1474.5,-198"/>
<text text-anchor="middle" x="1349" y="-176.3" font-family="sans-serif" font-size="14.00">aws_eks_node_group.balu361988</text>
</g>
<!-- aws_eks_node_group.balu361988&#45;&gt;aws_eks_cluster.balu361988 -->
<g id="edge4" class="edge">
<title>aws_eks_node_group.balu361988&#45;&gt;aws_eks_cluster.balu361988</title>
<path fill="none" stroke="black" d="M1223.3,-185.89C1136.42,-190 1021.29,-195.44 936.12,-199.47"/>
<polygon fill="black" stroke="black" points="935.71,-195.98 925.88,-199.95 936.04,-202.97 935.71,-195.98"/>
</g>
<!-- aws_iam_role.balu361988_node_group_role -->
<g id="node4" class="node">
<title>aws_iam_role.balu361988_node_group_role</title>
<polygon fill="none" stroke="black" points="976.5,-119 659.5,-119 659.5,-83 976.5,-83 976.5,-119"/>
<text text-anchor="middle" x="818" y="-97.3" font-family="sans-serif" font-size="14.00">aws_iam_role.balu361988_node_group_role</text>
</g>
<!-- aws_eks_node_group.balu361988&#45;&gt;aws_iam_role.balu361988_node_group_role -->
<g id="edge5" class="edge">
<title>aws_eks_node_group.balu361988&#45;&gt;aws_iam_role.balu361988_node_group_role</title>
<path fill="none" stroke="black" d="M1223.18,-172.75C1179.46,-168.73 1130.25,-162.54 1086,-153 1069.51,-149.45 1066.36,-145.12 1050,-141 1019.1,-133.22 985.5,-126.46 953.74,-120.82"/>
<polygon fill="black" stroke="black" points="953.95,-117.31 943.5,-119.03 952.75,-124.2 953.95,-117.31"/>
</g>
<!-- aws_security_group.balu361988_node_sg -->
<g id="node13" class="node">
<title>aws_security_group.balu361988_node_sg</title>
<polygon fill="none" stroke="black" points="543.5,-165 237.5,-165 237.5,-129 543.5,-129 543.5,-165"/>
<text text-anchor="middle" x="390.5" y="-143.3" font-family="sans-serif" font-size="14.00">aws_security_group.balu361988_node_sg</text>
</g>
<!-- aws_eks_node_group.balu361988&#45;&gt;aws_security_group.balu361988_node_sg -->
<g id="edge6" class="edge">
<title>aws_eks_node_group.balu361988&#45;&gt;aws_security_group.balu361988_node_sg</title>
<path fill="none" stroke="black" d="M1223.44,-175.7C1051.97,-169.79 742.94,-159.13 553.63,-152.59"/>
<polygon fill="black" stroke="black" points="553.69,-149.09 543.58,-152.25 553.45,-156.09 553.69,-149.09"/>
</g>
<!-- aws_iam_role_policy_attachment.balu361988_cluster_role_policy -->
<g id="node5" class="node">
<title>aws_iam_role_policy_attachment.balu361988_cluster_role_policy</title>
<polygon fill="none" stroke="black" points="1050,-327 586,-327 586,-291 1050,-291 1050,-327"/>
<text text-anchor="middle" x="818" y="-305.3" font-family="sans-serif" font-size="14.00">aws_iam_role_policy_attachment.balu361988_cluster_role_policy</text>
</g>
<!-- aws_iam_role_policy_attachment.balu361988_cluster_role_policy&#45;&gt;aws_iam_role.balu361988_cluster_role -->
<g id="edge7" class="edge">
<title>aws_iam_role_policy_attachment.balu361988_cluster_role_policy&#45;&gt;aws_iam_role.balu361988_cluster_role</title>
<path fill="none" stroke="black" d="M585.88,-309C571.2,-309 556.64,-309 542.47,-309"/>
<polygon fill="black" stroke="black" points="542.23,-305.5 532.23,-309 542.23,-312.5 542.23,-305.5"/>
</g>
<!-- aws_iam_role_policy_attachment.balu361988_node_group_cni_policy -->
<g id="node6" class="node">
<title>aws_iam_role_policy_attachment.balu361988_node_group_cni_policy</title>
<polygon fill="none" stroke="black" points="1595.5,-36 1102.5,-36 1102.5,0 1595.5,0 1595.5,-36"/>
<text text-anchor="middle" x="1349" y="-14.3" font-family="sans-serif" font-size="14.00">aws_iam_role_policy_attachment.balu361988_node_group_cni_policy</text>
</g>
<!-- aws_iam_role_policy_attachment.balu361988_node_group_cni_policy&#45;&gt;aws_iam_role.balu361988_node_group_role -->
<g id="edge8" class="edge">
<title>aws_iam_role_policy_attachment.balu361988_node_group_cni_policy&#45;&gt;aws_iam_role.balu361988_node_group_role</title>
<path fill="none" stroke="black" d="M1151.36,-36.02C1129.27,-38.71 1107.12,-41.71 1086,-45 1024.89,-54.53 956.65,-68.91 904.46,-80.71"/>
<polygon fill="black" stroke="black" points="903.55,-77.33 894.57,-82.96 905.1,-84.15 903.55,-77.33"/>
</g>
<!-- aws_iam_role_policy_attachment.balu361988_node_group_registry_policy -->
<g id="node7" class="node">
<title>aws_iam_role_policy_attachment.balu361988_node_group_registry_policy</title>
<polygon fill="none" stroke="black" points="1612,-144 1086,-144 1086,-108 1612,-108 1612,-144"/>
<text text-anchor="middle" x="1349" y="-122.3" font-family="sans-serif" font-size="14.00">aws_iam_role_policy_attachment.balu361988_node_group_registry_policy</text>
</g>
<!-- aws_iam_role_policy_attachment.balu361988_node_group_registry_policy&#45;&gt;aws_iam_role.balu361988_node_group_role -->
<g id="edge9" class="edge">
<title>aws_iam_role_policy_attachment.balu361988_node_group_registry_policy&#45;&gt;aws_iam_role.balu361988_node_group_role</title>
<path fill="none" stroke="black" d="M1085.82,-113.61C1052.18,-112.02 1018.49,-110.43 986.93,-108.94"/>
<polygon fill="black" stroke="black" points="986.91,-105.43 976.76,-108.46 986.58,-112.42 986.91,-105.43"/>
</g>
<!-- aws_iam_role_policy_attachment.balu361988_node_group_role_policy -->
<g id="node8" class="node">
<title>aws_iam_role_policy_attachment.balu361988_node_group_role_policy</title>
<polygon fill="none" stroke="black" points="1598,-90 1100,-90 1100,-54 1598,-54 1598,-90"/>
<text text-anchor="middle" x="1349" y="-68.3" font-family="sans-serif" font-size="14.00">aws_iam_role_policy_attachment.balu361988_node_group_role_policy</text>
</g>
<!-- aws_iam_role_policy_attachment.balu361988_node_group_role_policy&#45;&gt;aws_iam_role.balu361988_node_group_role -->
<g id="edge10" class="edge">
<title>aws_iam_role_policy_attachment.balu361988_node_group_role_policy&#45;&gt;aws_iam_role.balu361988_node_group_role</title>
<path fill="none" stroke="black" d="M1099.76,-85.61C1061.49,-87.71 1022.75,-89.83 986.78,-91.8"/>
<polygon fill="black" stroke="black" points="986.51,-88.31 976.72,-92.35 986.89,-95.3 986.51,-88.31"/>
</g>
<!-- aws_internet_gateway.balu361988_igw -->
<g id="node9" class="node">
<title>aws_internet_gateway.balu361988_igw</title>
<polygon fill="none" stroke="black" points="534,-381 247,-381 247,-345 534,-345 534,-381"/>
<text text-anchor="middle" x="390.5" y="-359.3" font-family="sans-serif" font-size="14.00">aws_internet_gateway.balu361988_igw</text>
</g>
<!-- aws_vpc.balu361988_vpc -->
<g id="node15" class="node">
<title>aws_vpc.balu361988_vpc</title>
<polygon fill="none" stroke="black" points="195,-246 0,-246 0,-210 195,-210 195,-246"/>
<text text-anchor="middle" x="97.5" y="-224.3" font-family="sans-serif" font-size="14.00">aws_vpc.balu361988_vpc</text>
</g>
<!-- aws_internet_gateway.balu361988_igw&#45;&gt;aws_vpc.balu361988_vpc -->
<g id="edge11" class="edge">
<title>aws_internet_gateway.balu361988_igw&#45;&gt;aws_vpc.balu361988_vpc</title>
<path fill="none" stroke="black" d="M254.44,-344.99C246.37,-342.38 238.5,-339.41 231,-336 187.66,-316.32 146.61,-278.9 122,-253.7"/>
<polygon fill="black" stroke="black" points="124.35,-251.09 114.9,-246.3 119.3,-255.94 124.35,-251.09"/>
</g>
<!-- aws_route_table.balu361988_route_table -->
<g id="node10" class="node">
<title>aws_route_table.balu361988_route_table</title>
<polygon fill="none" stroke="black" points="968,-381 668,-381 668,-345 968,-345 968,-381"/>
<text text-anchor="middle" x="818" y="-359.3" font-family="sans-serif" font-size="14.00">aws_route_table.balu361988_route_table</text>
</g>
<!-- aws_route_table.balu361988_route_table&#45;&gt;aws_internet_gateway.balu361988_igw -->
<g id="edge12" class="edge">
<title>aws_route_table.balu361988_route_table&#45;&gt;aws_internet_gateway.balu361988_igw</title>
<path fill="none" stroke="black" d="M667.88,-363C627.91,-363 584.64,-363 544.46,-363"/>
<polygon fill="black" stroke="black" points="544.32,-359.5 534.32,-363 544.32,-366.5 544.32,-359.5"/>
</g>
<!-- aws_route_table_association.a -->
<g id="node11" class="node">
<title>aws_route_table_association.a</title>
<polygon fill="none" stroke="black" points="1461,-298 1237,-298 1237,-262 1461,-262 1461,-298"/>
<text text-anchor="middle" x="1349" y="-276.3" font-family="sans-serif" font-size="14.00">aws_route_table_association.a</text>
</g>
<!-- aws_route_table_association.a&#45;&gt;aws_route_table.balu361988_route_table -->
<g id="edge13" class="edge">
<title>aws_route_table_association.a&#45;&gt;aws_route_table.balu361988_route_table</title>
<path fill="none" stroke="black" d="M1260.91,-298.02C1201.63,-309.87 1121.3,-325.15 1050,-336 1026.76,-339.54 1002.14,-342.86 977.97,-345.89"/>
<polygon fill="black" stroke="black" points="977.5,-342.42 968.01,-347.12 978.36,-349.37 977.5,-342.42"/>
</g>
<!-- aws_route_table_association.a&#45;&gt;aws_subnet.balu361988_subnet -->
<g id="edge14" class="edge">
<title>aws_route_table_association.a&#45;&gt;aws_subnet.balu361988_subnet</title>
<path fill="none" stroke="black" d="M1236.87,-277.1C1058.9,-272.44 710.76,-263.34 521.51,-258.4"/>
<polygon fill="black" stroke="black" points="521.59,-254.9 511.51,-258.14 521.41,-261.9 521.59,-254.9"/>
</g>
<!-- aws_security_group.balu361988_cluster_sg&#45;&gt;aws_vpc.balu361988_vpc -->
<g id="edge15" class="edge">
<title>aws_security_group.balu361988_cluster_sg&#45;&gt;aws_vpc.balu361988_vpc</title>
<path fill="none" stroke="black" d="M230.8,-215.72C222.2,-216.52 213.66,-217.32 205.3,-218.09"/>
<polygon fill="black" stroke="black" points="204.83,-214.62 195.2,-219.03 205.48,-221.59 204.83,-214.62"/>
</g>
<!-- aws_security_group.balu361988_node_sg&#45;&gt;aws_vpc.balu361988_vpc -->
<g id="edge16" class="edge">
<title>aws_security_group.balu361988_node_sg&#45;&gt;aws_vpc.balu361988_vpc</title>
<path fill="none" stroke="black" d="M267.31,-165.04C254.96,-167.69 242.68,-170.67 231,-174 201.98,-182.28 170.67,-194.86 145.77,-205.8"/>
<polygon fill="black" stroke="black" points="144.27,-202.63 136.56,-209.89 147.12,-209.03 144.27,-202.63"/>
</g>
<!-- aws_subnet.balu361988_subnet&#45;&gt;aws_vpc.balu361988_vpc -->
<g id="edge17" class="edge">
<title>aws_subnet.balu361988_subnet&#45;&gt;aws_vpc.balu361988_vpc</title>
<path fill="none" stroke="black" d="M269.46,-243.86C248.2,-241.89 226.19,-239.85 205.33,-237.91"/>
<polygon fill="black" stroke="black" points="205.47,-234.41 195.19,-236.97 204.82,-241.38 205.47,-234.41"/>
</g>
</g>
</svg>
